<svg width="169" height="131" viewBox="0 0 169 131" fill="none" xmlns="http://www.w3.org/2000/svg">
<path d="M72.553 23.7582C81.3069 10.8561 98.7855 7.34952 111.839 15.8766C125.055 24.5102 128.77 42.2229 120.136 55.439L86.8443 106.401C78.2227 119.599 60.5345 123.309 47.3367 114.687C34.2757 106.155 30.4846 88.7168 38.8242 75.532L58.071 45.1029L72.553 23.7582Z" fill="#F3F5FA"/>
<g style="mix-blend-mode:plus-lighter">
<path d="M94.3147 73.737C87.8343 62.9414 91.1909 48.9446 101.863 42.2623C112.678 35.49 126.936 38.7676 133.708 49.583L156.196 85.4972C162.958 96.2965 159.686 110.533 148.886 117.295C138.208 123.982 124.139 120.864 117.284 110.293L103.456 88.9648L94.3147 73.737Z" fill="#6285DF"/>
</g>
<g style="mix-blend-mode:lighten">
<ellipse cx="29" cy="78.5" rx="29" ry="35.5" fill="#F3B7B7"/>
</g>
</svg>
